<svg xmlns="http://www.w3.org/2000/svg" width="128" height="128" viewBox="0 0 128 128"><title>ccdeck</title><defs><linearGradient id="ccdeck-favicon-upper" gradientUnits="userSpaceOnUse" x1="34.75" y1="-2.06" x2="62.12" y2="62.42"><stop offset="0" stop-color="#BE68FC"/><stop offset="1" stop-color="#3B8CFA"/></linearGradient><linearGradient id="ccdeck-favicon-lower" gradientUnits="userSpaceOnUse" x1="33.74" y1="54.81" x2="105.49" y2="32.87"><stop offset="0" stop-color="#0CBCFD"/><stop offset="1" stop-color="#64F4EC"/></linearGradient><linearGradient id="ccdeck-favicon-node" gradientUnits="userSpaceOnUse" x1="50.77" y1="38.95" x2="61.23" y2="57.05"><stop offset="0" stop-color="#6388FA"/><stop offset="1" stop-color="#3F9BFB"/></linearGradient></defs><rect width="128" height="128" rx="24" fill="#0B0F14"/><g transform="translate(8 16) scale(1.000000)"><path fill="url(#ccdeck-favicon-upper)" d="M36 0L51 0A12 12 0 0 1 51 24L36 24A12 12 0 0 0 36 48A12 12 0 0 1 36.574 48.014A1 1 0 0 1 37.525 48.961A18.5 18.5 0 0 0 46.458 63.849A1 1 0 0 1 46.846 65.134A12 12 0 0 1 36 72A36 36 0 0 1 36 0Z"/><path fill="url(#ccdeck-favicon-lower)" d="M76 96L61 96A12 12 0 0 1 61 72L76 72A12 12 0 0 0 76 48A12 12 0 0 1 75.426 47.986A1 1 0 0 1 74.475 47.039A18.5 18.5 0 0 0 65.542 32.151A1 1 0 0 1 65.154 30.866A12 12 0 0 1 76 24A36 36 0 0 1 76 96Z"/><circle fill="url(#ccdeck-favicon-node)" cx="56" cy="48" r="10"/></g></svg>
